{
	"asset":{
		"version":"2.0",
		"generator":"Maxon Cinema 4D 2023.2.0 (#200000219)"
	},
	"scenes":[{
		"nodes":[0]
	}],
	"nodes":[{
		"name":"Ноль",
		"translation":[-0.00008220486051868647,
		0.1405937820672989,
		0.0004164633573964238],
		"rotation":[0.0,
		0.0,
		0.0,
		-1.0],
		"scale":[1.0,
		1.0,
		1.0],
		"children":[1,
		2]
	},
	{
		"name":"Цилиндр.1",
		"mesh":0,
		"translation":[0.00013914074224885553,
		0.002921080682426691,
		-0.0008227303042076528],
		"rotation":[0.0,
		0.0,
		0.0,
		-1.0],
		"scale":[1.0,
		1.0,
		1.0]
	},
	{
		"name":"Цилиндр.2",
		"mesh":1,
		"translation":[-0.00033322800300084054,
		0.005641397088766098,
		-0.0004164633573964238],
		"rotation":[0.0,
		0.0,
		0.7071067690849304,
		-0.7071067690849304],
		"scale":[1.0,
		1.0,
		1.0]
	}],
	"meshes":[{
		"name":"Цилиндр.1",
		"primitives":[{
			"attributes":{
				"POSITION":1,
				"NORMAL":2,
				"TEXCOORD_0":3
			},
			"indices":0,
			"material":0
		}]
	},
	{
		"name":"Цилиндр.2",
		"primitives":[{
			"attributes":{
				"POSITION":5,
				"NORMAL":6,
				"TEXCOORD_0":7
			},
			"indices":4,
			"material":1
		}]
	}],
	"accessors":[{
		"bufferView":0,
		"type":"SCALAR",
		"componentType":5123,
		"count":14298,
		"byteOffset":0,
		"min":[0],
		"max":[4852]
	},
	{
		"bufferView":1,
		"type":"VEC3",
		"componentType":5126,
		"count":4853,
		"byteOffset":0,
		"min":[-0.4801979660987854,
		-0.9641181826591492,
		-0.480844110250473],
		"max":[0.48152223229408266,
		0.6688650846481323,
		0.48165664076805117]
	},
	{
		"bufferView":1,
		"type":"VEC3",
		"componentType":5126,
		"count":4853,
		"byteOffset":12,
		"min":[-1.0,
		-1.0,
		-1.0],
		"max":[1.0,
		1.0,
		1.0]
	},
	{
		"bufferView":1,
		"type":"VEC2",
		"componentType":5126,
		"count":4853,
		"byteOffset":24,
		"min":[0.0,
		0.0],
		"max":[1.0,
		1.0]
	},
	{
		"bufferView":2,
		"type":"SCALAR",
		"componentType":5123,
		"count":5832,
		"byteOffset":0,
		"min":[0],
		"max":[1537]
	},
	{
		"bufferView":3,
		"type":"VEC3",
		"componentType":5126,
		"count":1538,
		"byteOffset":0,
		"min":[-0.4649486541748047,
		-0.37956950068473818,
		-0.2140352725982666],
		"max":[-0.0361526682972908,
		-0.22985464334487916,
		0.2140352725982666]
	},
	{
		"bufferView":3,
		"type":"VEC3",
		"componentType":5126,
		"count":1538,
		"byteOffset":12,
		"min":[-1.0,
		-1.0,
		-0.9992489218711853],
		"max":[1.0,
		1.0,
		0.9992489218711853]
	},
	{
		"bufferView":3,
		"type":"VEC2",
		"componentType":5126,
		"count":1538,
		"byteOffset":24,
		"min":[0.0,
		0.0],
		"max":[1.0,
		1.0]
	}],
	"bufferViews":[{
		"buffer":0,
		"byteOffset":0,
		"byteLength":28596,
		"target":34963
	},
	{
		"buffer":0,
		"byteOffset":28596,
		"byteLength":155296,
		"target":34962,
		"byteStride":32
	},
	{
		"buffer":1,
		"byteOffset":0,
		"byteLength":11664,
		"target":34963
	},
	{
		"buffer":1,
		"byteOffset":11664,
		"byteLength":49216,
		"target":34962,
		"byteStride":32
	}],
	"buffers":[{
		"uri":"data:application/octet-stream;base64,",
		"byteLength":183892
	},
	{
		"uri":"data:application/octet-stream;base64,",
		"byteLength":60880
	}],
	"materials":[{
		"name":"Материал.1",
		"pbrMetallicRoughness":{
			"baseColorFactor":[0.8,
			0.8,
			0.8,
			1.0],
			"metallicFactor":0.0,
			"roughnessFactor":0.5
		},
		"emissiveFactor":[0.0,
		0.0,
		0.0],
		"alphaMode":"OPAQUE",
		"doubleSided":false
	},
	{
		"name":"Материал.2",
		"pbrMetallicRoughness":{
			"baseColorFactor":[0.0,
			0.0,
			0.0,
			1.0],
			"metallicFactor":0.0,
			"roughnessFactor":0.5
		},
		"emissiveFactor":[0.0,
		0.0,
		0.0],
		"alphaMode":"OPAQUE",
		"doubleSided":false
	}]
}